# xmcd
# 
# Track frame offsets:
#     150
#     16547
#     19275
#     42862
#     61262
#     83332
#     100712
#     120500
#     136157
#     157892
#     173742
# 
# Disc length: 2638
# 
# Revision: 0
# Processed by: cddbd v1.5.2PL0 Copyright (c) Steve Scherf et al.
# Submitted via: BonkEnc v1.0.8
# 
DISCID=6e0a4c0b
DTITLE=一青窈 - 一青想
DYEAR=2004
DGENRE=JPop
TTITLE0=今日わずらい
TTITLE1=INTERLUDE -映画「珈琲時光」より-
TTITLE2=一思案（ひとしあん）
TTITLE3=いろはもみじ
TTITLE4=面影モダン
TTITLE5=うやむや
TTITLE6=金魚すくい
TTITLE7=江戸ポルカ
TTITLE8=大家（ダージャー）
TTITLE9=夢なかば
TTITLE10=ハナミズキ
EXTD=YEAR: 2004
EXTT0=
EXTT1=
EXTT2=
EXTT3=
EXTT4=
EXTT5=
EXTT6=
EXTT7=
EXTT8=
EXTT9=
EXTT10=
PLAYORDER=
